<svg width="20" height="20" viewBox="0 0 20 20" fill="none" xmlns="http://www.w3.org/2000/svg">
<g clip-path="url(#clip0_271_1111)">
<path d="M3.74935 18.3334V14.1667M3.74935 5.83341V1.66675M1.66602 3.75008H5.83268M1.66602 16.2501H5.83268M10.8327 2.50008L9.38753 6.25747C9.15252 6.86849 9.03502 7.174 8.85229 7.43099C8.69034 7.65875 8.49135 7.85774 8.26359 8.01969C8.0066 8.20242 7.70109 8.31992 7.09007 8.55493L3.33268 10.0001L7.09007 11.4452C7.70109 11.6802 8.00661 11.7977 8.26359 11.9805C8.49135 12.1424 8.69034 12.3414 8.85229 12.5692C9.03502 12.8262 9.15252 13.1317 9.38753 13.7427L10.8327 17.5001L12.2778 13.7427C12.5128 13.1317 12.6303 12.8262 12.8131 12.5692C12.975 12.3414 13.174 12.1424 13.4018 11.9805C13.6588 11.7977 13.9643 11.6802 14.5753 11.4452L18.3327 10.0001L14.5753 8.55493C13.9643 8.31992 13.6588 8.20242 13.4018 8.01969C13.174 7.85774 12.975 7.65875 12.8131 7.43099C12.6303 7.174 12.5128 6.86849 12.2778 6.25747L10.8327 2.50008Z" stroke="white" stroke-width="1.66667" stroke-linecap="round" stroke-linejoin="round"/>
</g>
<defs>
<clipPath id="clip0_271_1111">
<rect width="20" height="20" fill="white"/>
</clipPath>
</defs>
</svg>
