<svg width="39" height="32" viewBox="0 0 39 32" fill="none" xmlns="http://www.w3.org/2000/svg">
<path d="M33.3939 6.97233C33.1506 7.19549 32.8335 7.32122 32.5034 7.3255H1.25573C0.146393 7.3255 -0.412607 6.058 0.354393 5.31483L5.48723 0.366167C5.72571 0.135146 6.04355 0.00413238 6.37556 0H37.7424C38.8626 0 39.4107 1.27833 38.6307 2.02583L33.3939 6.97233Z" fill="url(#paint0_linear_86_3781)"/>
<path d="M33.3939 31.3603C33.1489 31.5795 32.8321 31.7013 32.5034 31.7026H1.25573C0.146393 31.7026 -0.412607 30.4459 0.354393 29.7028L5.48723 24.7411C5.72774 24.5148 6.04534 24.3886 6.37556 24.3879H37.7424C38.8626 24.3879 39.4107 25.6576 38.6307 26.3986L33.3939 31.3603Z" fill="url(#paint1_linear_86_3781)"/>
<path d="M33.3939 12.5428C33.1489 12.3235 32.8321 12.2018 32.5034 12.2004H1.25573C0.146393 12.2004 -0.412607 13.4571 0.354393 14.2003L5.48723 19.1619C5.72773 19.3851 6.04406 19.5086 6.37556 19.5151H37.7424C38.8626 19.5151 39.4107 18.2454 38.6307 17.5044L33.3939 12.5428Z" fill="url(#paint2_linear_86_3781)"/>
<defs>
<linearGradient id="paint0_linear_86_3781" x1="0.0012266" y1="109.107" x2="39.9936" y2="108.738" gradientUnits="userSpaceOnUse">
<stop stop-color="#599DB0"/>
<stop offset="1" stop-color="#47F8C3"/>
</linearGradient>
<linearGradient id="paint1_linear_86_3781" x1="0.00122658" y1="9.71527" x2="39.7379" y2="9.40977" gradientUnits="userSpaceOnUse">
<stop stop-color="#C44FE2"/>
<stop offset="1" stop-color="#73B0D0"/>
</linearGradient>
<linearGradient id="paint2_linear_86_3781" x1="2.24373" y1="15.8578" x2="37.4889" y2="15.8578" gradientUnits="userSpaceOnUse">
<stop stop-color="#778CBF"/>
<stop offset="1" stop-color="#5DCDC9"/>
</linearGradient>
</defs>
</svg>
