<svg width="24" height="24" viewBox="0 0 24 24" fill="none" xmlns="http://www.w3.org/2000/svg">
<g clip-path="url(#clip0_133_4667)">
<path d="M18.5327 4.25042C18.7606 4.80169 19.1982 5.23988 19.7491 5.46865L21.6809 6.26884C22.2322 6.4972 22.6703 6.93522 22.8986 7.48653C23.127 8.03784 23.127 8.65729 22.8986 9.20861L22.099 11.1391C21.8705 11.6906 21.8702 12.3107 22.0997 12.862L22.898 14.7919C23.0112 15.0649 23.0695 15.3576 23.0695 15.6532C23.0696 15.9488 23.0114 16.2415 22.8982 16.5146C22.7851 16.7877 22.6193 17.0358 22.4102 17.2448C22.2012 17.4538 21.953 17.6195 21.6799 17.7326L19.7494 18.5322C19.1982 18.7601 18.76 19.1976 18.5312 19.7486L17.731 21.6804C17.5027 22.2317 17.0646 22.6697 16.5133 22.8981C15.962 23.1265 15.3426 23.1265 14.7912 22.8981L12.8608 22.0985C12.3095 21.8707 11.6902 21.8711 11.1393 22.0998L9.20743 22.8988C8.65642 23.1266 8.03751 23.1265 7.48665 22.8983C6.93578 22.6701 6.49801 22.2326 6.26949 21.6819L5.46906 19.7495C5.24112 19.1982 4.80359 18.76 4.25267 18.5312L2.32083 17.7311C1.76976 17.5028 1.33187 17.0651 1.10343 16.5141C0.874983 15.9631 0.874673 15.3439 1.10257 14.7927L1.90218 12.8622C2.12998 12.3109 2.12952 11.6917 1.90089 11.1407L1.10242 9.20747C0.989215 8.93441 0.930922 8.64173 0.930875 8.34613C0.930828 8.05053 0.989026 7.75783 1.10215 7.48473C1.21527 7.21164 1.38109 6.96351 1.59014 6.75452C1.79919 6.54554 2.04737 6.3798 2.3205 6.26677L4.25095 5.46715C4.80174 5.23941 5.23967 4.80243 5.4686 4.25214L6.26879 2.3203C6.49716 1.76899 6.93517 1.33097 7.48649 1.10261C8.0378 0.874252 8.65725 0.874252 9.20856 1.10261L11.139 1.90223C11.6903 2.13003 12.3096 2.12956 12.8605 1.90094L14.7932 1.10385C15.3444 0.87562 15.9637 0.875667 16.515 1.10398C17.0662 1.3323 17.5041 1.77019 17.7325 2.32136L18.5329 4.25377L18.5327 4.25042Z" fill="#53B1FD"/>
<path fill-rule="evenodd" clip-rule="evenodd" d="M16.6999 8.85437C16.8602 8.60255 16.9139 8.29735 16.8492 8.00592C16.7845 7.71449 16.6067 7.46069 16.3549 7.30037C16.1031 7.14005 15.7979 7.08633 15.5064 7.15103C15.215 7.21573 14.9612 7.39355 14.8009 7.64537L10.3954 14.5679L8.37939 12.0479C8.19301 11.8147 7.92166 11.6652 7.62502 11.6322C7.32838 11.5991 7.03077 11.6852 6.79764 11.8716C6.56452 12.058 6.41498 12.3294 6.38193 12.626C6.34887 12.9226 6.43501 13.2202 6.62139 13.4534L9.62139 17.2034C9.7332 17.3433 9.8768 17.4545 10.0402 17.5278C10.2037 17.601 10.3823 17.6342 10.5611 17.6245C10.74 17.6148 10.9139 17.5626 11.0685 17.4721C11.2231 17.3816 11.3538 17.2556 11.4499 17.1044L16.6999 8.85437Z" fill="white"/>
</g>
<defs>
<clipPath id="clip0_133_4667">
<rect width="24" height="24" fill="white"/>
</clipPath>
</defs>
</svg>
