<svg width="28" height="28" viewBox="0 0 28 28" fill="none" xmlns="http://www.w3.org/2000/svg">
<path d="M0 14C0 6.26801 6.26801 0 14 0C21.732 0 28 6.26801 28 14C28 21.732 21.732 28 14 28C6.26801 28 0 21.732 0 14Z" fill="url(#paint0_linear_95_9398)"/>
<path fill-rule="evenodd" clip-rule="evenodd" d="M10.0141 8.40312C9.14679 8.87814 8.1875 10.6232 8.1875 11.7253C8.1875 12.5956 8.95347 13.8727 9.26764 13.526C9.3812 13.4007 9.62183 12.8317 9.80244 12.2614C10.4221 10.3037 10.7804 10.1588 15.0017 10.1588H18.7399L19.2758 9.27153C19.5705 8.78341 19.812 8.29228 19.8125 8.17954C19.813 8.06679 17.7758 7.9797 15.2848 7.98571C11.8027 7.99417 10.5846 8.09054 10.0141 8.40312ZM11.8411 13.0586C11.6161 13.6024 11.432 14.0938 11.432 14.1506C11.432 14.2074 12.3445 14.2538 13.4598 14.2538C15.6006 14.2538 15.8483 14.4356 14.9468 15.3458C14.5102 15.7867 14.0457 15.8918 12.534 15.8918H10.6622L10.0047 17.9393C9.64292 19.0654 9.42068 19.9862 9.51071 19.9854C9.60074 19.9846 11.0429 19.1945 12.7152 18.23C16.1081 16.2729 17.9023 14.8997 18.4725 13.8238C18.8248 13.1593 18.8051 13.0627 18.2227 12.5866C17.6979 12.1574 17.1374 12.0698 14.9206 12.0698H12.2504L11.8411 13.0586Z" fill="white"/>
<defs>
<linearGradient id="paint0_linear_95_9398" x1="0" y1="0" x2="29.6424" y2="7.56184" gradientUnits="userSpaceOnUse">
<stop stop-color="#14F195"/>
<stop offset="1" stop-color="#9945FF"/>
</linearGradient>
</defs>
</svg>
