<svg width="32" height="33" viewBox="0 0 32 33" fill="none" xmlns="http://www.w3.org/2000/svg">
<path fill-rule="evenodd" clip-rule="evenodd" d="M5.37106 1.11389C3.0581 2.38061 0.5 7.03398 0.5 9.97292C0.5 12.2938 2.54259 15.6994 3.38038 14.7748C3.6832 14.4406 4.32489 12.9235 4.80652 11.4027C6.45904 6.18222 7.41436 5.79566 18.6713 5.79566H28.6398L30.0688 3.42966C30.8547 2.12799 31.4986 0.818324 31.5 0.51766C31.5014 0.216996 26.0687 -0.0152349 19.4262 0.000781113C10.1405 0.0233491 6.89236 0.280332 5.37106 1.11389ZM10.2428 13.5285C9.64297 14.9786 9.15197 16.289 9.15197 16.4405C9.15197 16.5919 11.5853 16.7156 14.5594 16.7156C20.2683 16.7156 20.9287 17.2005 18.5249 19.6276C17.3605 20.8034 16.1218 21.0836 12.0908 21.0836H7.09929L5.34582 26.5436C4.38113 29.5466 3.78847 32.0022 4.02856 32C4.26865 31.9978 8.11445 29.891 12.5738 27.319C21.6216 22.0999 26.4062 18.4381 27.9267 15.569C28.8662 13.7971 28.8136 13.5394 27.2605 12.2698C25.8611 11.1253 24.3665 10.8917 18.455 10.8917H11.3344L10.2428 13.5285Z" fill="white"/>
</svg>
