<svg width="24" height="25" viewBox="0 0 24 25" fill="none" xmlns="http://www.w3.org/2000/svg">
<path fill-rule="evenodd" clip-rule="evenodd" d="M4.02829 0.835419C2.29357 1.78546 0.375 5.27549 0.375 7.47969C0.375 9.22033 1.90694 11.7745 2.53529 11.0811C2.7624 10.8305 3.24367 9.69262 3.60489 8.55203C4.84428 4.63667 5.56077 4.34674 14.0035 4.34674H21.4799L22.5516 2.57224C23.141 1.596 23.6239 0.613743 23.625 0.388245C23.6261 0.162747 19.5515 -0.0114262 14.5696 0.000585835C7.60534 0.0175118 5.16927 0.210249 4.02829 0.835419ZM7.68213 10.1464C7.23222 11.234 6.86398 12.2168 6.86398 12.3303C6.86398 12.4439 8.689 12.5367 10.9196 12.5367C15.2012 12.5367 15.6966 12.9004 13.8937 14.7207C13.0204 15.6025 12.0914 15.8127 9.06806 15.8127H5.32447L4.00937 19.9077C3.28585 22.16 2.84135 24.0016 3.02142 24C3.20149 23.9984 6.08584 22.4182 9.43036 20.4892C16.2162 16.5749 19.8046 13.8286 20.9451 11.6768C21.6496 10.3478 21.6102 10.1545 20.4454 9.20232C19.3958 8.34401 18.2748 8.16874 13.8412 8.16874H8.50082L7.68213 10.1464Z" fill="url(#paint0_linear_271_1785)"/>
<defs>
<linearGradient id="paint0_linear_271_1785" x1="0.375" y1="0" x2="25.0816" y2="6.10576" gradientUnits="userSpaceOnUse">
<stop stop-color="#14F195"/>
<stop offset="1" stop-color="#9945FF"/>
</linearGradient>
</defs>
</svg>
