<svg width="150" height="24" viewBox="0 0 150 24" fill="none" xmlns="http://www.w3.org/2000/svg">
<path d="M5.274 18.696C4.422 18.696 3.618 18.57 2.862 18.318C2.118 18.054 1.494 17.64 0.99 17.076C0.486 16.5 0.156 15.75 0 14.826H2.286C2.43 15.294 2.658 15.66 2.97 15.924C3.294 16.188 3.672 16.374 4.104 16.482C4.536 16.578 4.974 16.626 5.418 16.626C5.814 16.626 6.186 16.578 6.534 16.482C6.894 16.374 7.188 16.2 7.416 15.96C7.656 15.72 7.776 15.402 7.776 15.006C7.776 14.706 7.71 14.466 7.578 14.286C7.458 14.094 7.284 13.938 7.056 13.818C6.84 13.686 6.576 13.584 6.264 13.512C5.964 13.416 5.64 13.332 5.292 13.26C4.944 13.188 4.602 13.11 4.266 13.026C3.93 12.942 3.612 12.834 3.312 12.702C2.928 12.57 2.556 12.42 2.196 12.252C1.848 12.072 1.542 11.856 1.278 11.604C1.026 11.352 0.822 11.04 0.666 10.668C0.51 10.296 0.432 9.852 0.432 9.336C0.432 8.748 0.528 8.244 0.72 7.824C0.924 7.392 1.188 7.038 1.512 6.762C1.848 6.486 2.22 6.27 2.628 6.114C3.048 5.958 3.48 5.844 3.924 5.772C4.38 5.7 4.812 5.664 5.22 5.664C6.012 5.664 6.732 5.796 7.38 6.06C8.04 6.324 8.58 6.732 9 7.284C9.42 7.836 9.66 8.544 9.72 9.408H7.542C7.494 9 7.35 8.676 7.11 8.436C6.87 8.184 6.57 8.004 6.21 7.896C5.85 7.776 5.46 7.716 5.04 7.716C4.752 7.716 4.464 7.74 4.176 7.788C3.9 7.836 3.648 7.92 3.42 8.04C3.204 8.16 3.024 8.322 2.88 8.526C2.748 8.718 2.682 8.964 2.682 9.264C2.682 9.528 2.748 9.762 2.88 9.966C3.012 10.158 3.192 10.32 3.42 10.452C3.66 10.584 3.942 10.704 4.266 10.812C4.686 10.98 5.142 11.106 5.634 11.19C6.138 11.274 6.612 11.388 7.056 11.532C7.488 11.652 7.884 11.802 8.244 11.982C8.616 12.15 8.934 12.36 9.198 12.612C9.462 12.852 9.666 13.152 9.81 13.512C9.966 13.86 10.044 14.28 10.044 14.772C10.044 15.492 9.912 16.104 9.648 16.608C9.396 17.1 9.042 17.502 8.586 17.814C8.142 18.126 7.632 18.354 7.056 18.498C6.492 18.63 5.898 18.696 5.274 18.696Z" fill="white"/>
<path d="M18.0003 18.696C16.6923 18.696 15.5763 18.42 14.6523 17.868C13.7403 17.316 13.0383 16.548 12.5463 15.564C12.0663 14.58 11.8263 13.458 11.8263 12.198C11.8263 10.914 12.0723 9.786 12.5643 8.814C13.0563 7.83 13.7643 7.062 14.6883 6.51C15.6123 5.946 16.7283 5.664 18.0363 5.664C19.3443 5.664 20.4543 5.94 21.3663 6.492C22.2903 7.044 22.9983 7.812 23.4903 8.796C23.9823 9.768 24.2283 10.89 24.2283 12.162C24.2283 13.422 23.9823 14.544 23.4903 15.528C23.0103 16.512 22.3023 17.286 21.3663 17.85C20.4423 18.414 19.3203 18.696 18.0003 18.696ZM18.0363 16.608C18.9483 16.608 19.6923 16.398 20.2683 15.978C20.8443 15.558 21.2643 15.012 21.5283 14.34C21.8043 13.668 21.9423 12.954 21.9423 12.198C21.9423 11.622 21.8643 11.07 21.7083 10.542C21.5643 10.014 21.3303 9.54 21.0063 9.12C20.6943 8.7 20.2923 8.37 19.8003 8.13C19.3083 7.878 18.7203 7.752 18.0363 7.752C17.1363 7.752 16.3923 7.962 15.8043 8.382C15.2283 8.802 14.8023 9.348 14.5263 10.02C14.2503 10.692 14.1123 11.418 14.1123 12.198C14.1123 12.966 14.2503 13.686 14.5263 14.358C14.8023 15.03 15.2283 15.576 15.8043 15.996C16.3923 16.404 17.1363 16.608 18.0363 16.608Z" fill="white"/>
<path d="M26.3623 18.552V5.826H28.6123V16.5H35.2363V18.552H26.3623Z" fill="white"/>
<path d="M35.9283 18.552L40.8063 5.826H43.4883L48.3483 18.552H45.9183L45.0723 16.194H39.2043L38.3403 18.552H35.9283ZM39.9243 14.16H44.3343L42.1383 8.094L39.9243 14.16Z" fill="white"/>
<path d="M49.8466 18.552V5.826H52.2586L58.3966 15.096V5.826H60.6466V18.552H58.2886L52.0966 9.336V18.552H49.8466Z" fill="white"/>
<path d="M62.1373 18.552L67.0153 5.826H69.6973L74.5573 18.552H72.1273L71.2813 16.194H65.4133L64.5493 18.552H62.1373ZM66.1333 14.16H70.5433L68.3473 8.094L66.1333 14.16Z" fill="white"/>
<path d="M76.0556 18.552V5.826H84.9476V7.878H78.3056V11.676H83.9936V13.728H78.3056V18.552H76.0556Z" fill="white"/>
<path d="M92.0678 18.696C90.8558 18.696 89.8598 18.462 89.0798 17.994C88.2998 17.514 87.7238 16.842 87.3518 15.978C86.9798 15.114 86.7938 14.094 86.7938 12.918V5.826H89.0438V12.972C89.0438 13.62 89.1338 14.226 89.3138 14.79C89.5058 15.342 89.8238 15.786 90.2678 16.122C90.7238 16.458 91.3358 16.626 92.1038 16.626C92.8838 16.626 93.4838 16.458 93.9038 16.122C94.3358 15.774 94.6358 15.324 94.8038 14.772C94.9838 14.22 95.0738 13.62 95.0738 12.972V5.826H97.3418V12.918C97.3418 14.082 97.1558 15.096 96.7838 15.96C96.4118 16.824 95.8418 17.496 95.0738 17.976C94.3058 18.456 93.3038 18.696 92.0678 18.696Z" fill="white"/>
<path d="M100.103 18.552V5.826H102.515L108.653 15.096V5.826H110.903V18.552H108.545L102.353 9.336V18.552H100.103Z" fill="white"/>
<path d="M113.743 18.552V5.826H118.441C119.773 5.826 120.901 6.084 121.825 6.6C122.749 7.104 123.451 7.836 123.931 8.796C124.423 9.744 124.669 10.884 124.669 12.216C124.669 13.524 124.429 14.652 123.949 15.6C123.481 16.548 122.785 17.28 121.861 17.796C120.937 18.3 119.803 18.552 118.459 18.552H113.743ZM115.993 16.5H118.405C119.353 16.5 120.115 16.32 120.691 15.96C121.279 15.588 121.705 15.084 121.969 14.448C122.245 13.8 122.383 13.05 122.383 12.198C122.383 11.37 122.251 10.632 121.987 9.984C121.723 9.336 121.297 8.826 120.709 8.454C120.133 8.07 119.371 7.878 118.423 7.878H115.993V16.5Z" fill="white"/>
<path d="M126.821 18.552V5.826H135.803V7.878H129.071V11.226H134.921V13.242H129.071V16.5H135.803V18.552H126.821Z" fill="white"/>
<path d="M137.948 18.552V5.826H142.646C143.978 5.826 145.106 6.084 146.03 6.6C146.954 7.104 147.656 7.836 148.136 8.796C148.628 9.744 148.874 10.884 148.874 12.216C148.874 13.524 148.634 14.652 148.154 15.6C147.686 16.548 146.99 17.28 146.066 17.796C145.142 18.3 144.008 18.552 142.664 18.552H137.948ZM140.198 16.5H142.61C143.558 16.5 144.32 16.32 144.896 15.96C145.484 15.588 145.91 15.084 146.174 14.448C146.45 13.8 146.588 13.05 146.588 12.198C146.588 11.37 146.456 10.632 146.192 9.984C145.928 9.336 145.502 8.826 144.914 8.454C144.338 8.07 143.576 7.878 142.628 7.878H140.198V16.5Z" fill="white"/>
</svg>
