<svg width="16" height="16" viewBox="0 0 16 16" fill="none" xmlns="http://www.w3.org/2000/svg">
<path d="M3.85547 2.78795C4.28737 2.45546 4.50332 2.28922 4.75257 2.18215C4.86559 2.13361 4.9831 2.09439 5.10371 2.06494C5.36972 2 5.65179 2 6.21591 2H9.78539C10.3495 2 10.6316 2 10.8976 2.06494C11.0182 2.09439 11.1357 2.13361 11.2487 2.18215C11.498 2.28922 11.7139 2.45546 12.1459 2.78795C13.5769 3.88965 14.2925 4.44051 14.5378 5.15385C14.6469 5.47115 14.6877 5.80485 14.6579 6.13641C14.5908 6.8818 14.0259 7.564 12.8962 8.92833L10.2339 12.1435C9.20905 13.3812 8.69665 14 8.00065 14C7.30465 14 6.79225 13.3812 5.76744 12.1435L3.10513 8.92833C1.97537 7.564 1.41049 6.8818 1.34345 6.13641C1.31363 5.80485 1.35441 5.47115 1.46352 5.15385C1.70881 4.44051 2.42437 3.88965 3.85547 2.78795Z" fill="url(#paint0_linear_133_4678)" stroke="url(#paint1_linear_133_4678)"/>
<path d="M6.66602 5.66666H9.33268" stroke="#0C0E12" stroke-linecap="round" stroke-linejoin="round"/>
<defs>
<linearGradient id="paint0_linear_133_4678" x1="1.33398" y1="2" x2="15.25" y2="5.94444" gradientUnits="userSpaceOnUse">
<stop stop-color="#14F195"/>
<stop offset="1" stop-color="#9945FF"/>
</linearGradient>
<linearGradient id="paint1_linear_133_4678" x1="1.33398" y1="2" x2="15.25" y2="5.94444" gradientUnits="userSpaceOnUse">
<stop stop-color="#14F195"/>
<stop offset="1" stop-color="#9945FF"/>
</linearGradient>
</defs>
</svg>
