<svg width="436" height="110" viewBox="0 0 436 110" fill="none" xmlns="http://www.w3.org/2000/svg">
<g filter="url(#filter0_f_90_7129)">
<ellipse cx="82.4089" cy="125.298" rx="82.4089" ry="125.298" transform="matrix(-0.827186 0.561927 -0.561927 -0.827187 542.73 127.227)" fill="#741AD6"/>
</g>
<mask id="mask0_90_7129" style="mask-type:alpha" maskUnits="userSpaceOnUse" x="102" y="-137" width="612" height="483">
<path d="M150.711 -136.247L102.638 232.667L443.479 345.378L544.667 345.126L713.219 140.885L700.61 -24.9074L405.367 -95.1975L150.711 -136.247Z" fill="url(#paint0_linear_90_7129)"/>
</mask>
<g mask="url(#mask0_90_7129)">
<mask id="mask1_90_7129" style="mask-type:alpha" maskUnits="userSpaceOnUse" x="87" y="-139" width="639" height="509">
<path d="M725.416 -11.5659C685.491 155.136 616.076 360.738 614.637 369.171L87.9633 241.427L147.441 -138.961L725.416 -11.5659Z" fill="url(#paint1_linear_90_7129)"/>
</mask>
<g mask="url(#mask1_90_7129)">
<path d="M439.164 270.496C381.416 256.748 347.081 185.467 359.828 131.925C372.575 78.3828 412.68 13.6841 474.638 28.4349C505.342 35.7447 551.143 8.8287 581.273 44.176C611.945 80.1584 586.116 151.173 579.686 178.182C566.939 231.724 496.911 284.245 439.164 270.496Z" fill="#741AD6"/>
<g filter="url(#filter1_f_90_7129)">
<path d="M440.946 266.075C379.012 251.33 345.727 194.412 355.623 152.843C365.52 111.275 401.874 62.2877 463.807 77.0325C494.498 84.3393 538.635 64.3428 570.171 93.7239C602.273 123.633 580.335 178.317 575.343 199.286C565.446 240.855 502.879 280.82 440.946 266.075Z" fill="#741AD6"/>
</g>
<g filter="url(#filter2_f_90_7129)">
<path d="M436.292 252.452C366.876 235.926 330.828 166.847 343.048 115.519C355.268 64.1912 397.494 3.06788 466.909 19.594C501.308 27.7834 552.699 -2.70076 587.482 32.5892C622.89 68.5131 595.731 140.607 589.566 166.5C577.346 217.827 505.707 268.979 436.292 252.452Z" fill="#741AD6"/>
</g>
<g filter="url(#filter3_f_90_7129)">
<path d="M432.246 233.773C349.857 199.452 296.387 108.958 312.197 42.5508C328.007 -23.8566 388.597 -85.2906 471.847 -65.4709C513.101 -55.6492 583.365 -115.4 624.506 -70.6618C666.386 -25.1196 632.567 94.9907 624.592 128.49C608.782 194.897 527.689 273.533 432.246 233.773Z" fill="#741AD6"/>
</g>
<g filter="url(#filter4_f_90_7129)">
<path d="M413.803 211.599C324.165 190.258 260.963 84.8022 276.421 19.8752C291.878 -45.0519 355.426 -104.091 445.064 -82.7501C489.484 -72.1747 549.317 -84.1129 594.395 -39.2162C640.282 6.48701 634.428 147.35 626.63 180.102C611.173 245.029 503.441 232.939 413.803 211.599Z" fill="#741AD6"/>
</g>
<g filter="url(#filter5_f_90_7129)">
<path d="M378.684 175.852C286.051 153.798 227.139 47.3021 242.949 -19.1054C258.759 -85.5128 324.252 -145.78 416.884 -123.726C462.789 -112.797 509.94 -6.63952 556.605 39.4141C604.108 86.2951 569.922 173.861 561.946 207.36C546.136 273.768 471.317 197.906 378.684 175.852Z" fill="#741AD6"/>
</g>
<g filter="url(#filter6_f_90_7129)">
<path d="M442.643 202.236C362.024 181.196 315.336 76.0418 332.574 9.99061C349.812 -56.0605 410.571 -116.472 491.19 -95.432C531.141 -85.0058 584.233 -89.9162 623.114 -44.6368C662.693 1.45596 628.196 88.6743 619.5 121.994C602.262 188.045 523.262 223.276 442.643 202.236Z" fill="#741AD6"/>
</g>
</g>
</g>
<mask id="mask2_90_7129" style="mask-type:alpha" maskUnits="userSpaceOnUse" x="78" y="-170" width="516" height="314">
<path d="M94.8897 -169.362L78.0084 2.78229L586.482 143.247L593.493 -51.1124L94.8897 -169.362Z" fill="url(#paint2_linear_90_7129)"/>
</mask>
<g mask="url(#mask2_90_7129)">
<mask id="mask3_90_7129" style="mask-type:alpha" maskUnits="userSpaceOnUse" x="75" y="-192" width="504" height="345">
<path d="M75.6083 46.413L110.325 -191.537L578.724 -56.6045L553.177 152.057L75.6083 46.413Z" fill="url(#paint3_linear_90_7129)"/>
</mask>
<g mask="url(#mask3_90_7129)">
<path d="M409.568 21.5865C336.909 -49.1024 254.745 -52.9764 195.622 -49.3973L147.19 -49.8216L116.173 -56.3396L166.989 -118.261L256.541 -109.84L457.67 -56.2203C457.67 -56.2203 613.973 36.6689 568.935 37.5401C530.444 43.0234 484.975 75.4134 409.568 21.5865Z" fill="#9945FF"/>
<g filter="url(#filter7_f_90_7129)">
<path d="M409.568 21.5865C331.51 -39.6076 330.521 -44.8281 226.419 -50.8088L147.19 -49.8216L116.173 -56.3396L166.989 -118.261L256.541 -109.84L457.67 -56.2203C457.67 -56.2203 613.973 36.6689 568.935 37.5401C530.444 43.0234 484.975 75.4134 409.568 21.5865Z" fill="#9945FF"/>
</g>
<g filter="url(#filter8_f_90_7129)">
<path d="M409.568 21.5865C305.892 -74.574 304.622 -41.1888 200.521 -47.1696L170.359 -46.3176L138.908 -49.7455L116.173 -56.3396L166.989 -118.261L256.541 -109.84L457.67 -56.2203C457.67 -56.2203 613.973 36.6689 568.935 37.5401C530.444 43.0234 485.408 85.6368 409.568 21.5865Z" fill="#9945FF"/>
</g>
<g filter="url(#filter9_f_90_7129)">
<path d="M428.401 32.972C324.725 -63.1885 314.126 -92.8859 185.518 -47.0384L155.356 -46.1865L107.343 -49.4632L69.6057 -55.9263L167.1 -118.134L256.652 -109.713L457.781 -56.0932C457.781 -56.0932 614.084 36.796 569.047 37.6672C530.555 43.1505 504.241 97.0223 428.401 32.972Z" fill="#9945FF"/>
</g>
<g filter="url(#filter10_f_90_7129)">
<path d="M431.063 38.2983C361.891 -55.3197 301.545 -74.1291 206.343 -44.4023L81.6772 -9.70104L65.2015 -35.5741L69.6057 -55.9263L167.1 -118.134L256.652 -109.713L457.781 -56.0932C457.781 -56.0932 614.084 36.796 569.047 37.6672C530.555 43.1505 521.495 140.937 431.063 38.2983Z" fill="#9945FF"/>
</g>
</g>
</g>
<defs>
<filter id="filter0_f_90_7129" x="207.485" y="-142.327" width="393.34" height="424.434" filterUnits="userSpaceOnUse" color-interpolation-filters="sRGB">
<feFlood flood-opacity="0" result="BackgroundImageFix"/>
<feBlend mode="normal" in="SourceGraphic" in2="BackgroundImageFix" result="shape"/>
<feGaussianBlur stdDeviation="49.3345" result="effect1_foregroundBlur_90_7129"/>
</filter>
<filter id="filter1_f_90_7129" x="349.954" y="70.4048" width="241.292" height="202.742" filterUnits="userSpaceOnUse" color-interpolation-filters="sRGB">
<feFlood flood-opacity="0" result="BackgroundImageFix"/>
<feBlend mode="normal" in="SourceGraphic" in2="BackgroundImageFix" result="shape"/>
<feGaussianBlur stdDeviation="1.97338" result="effect1_foregroundBlur_90_7129"/>
</filter>
<filter id="filter2_f_90_7129" x="326.884" y="1.30279" width="292.258" height="268.126" filterUnits="userSpaceOnUse" color-interpolation-filters="sRGB">
<feFlood flood-opacity="0" result="BackgroundImageFix"/>
<feBlend mode="normal" in="SourceGraphic" in2="BackgroundImageFix" result="shape"/>
<feGaussianBlur stdDeviation="6.90683" result="effect1_foregroundBlur_90_7129"/>
</filter>
<filter id="filter3_f_90_7129" x="289.694" y="-107.221" width="375.087" height="371.467" filterUnits="userSpaceOnUse" color-interpolation-filters="sRGB">
<feFlood flood-opacity="0" result="BackgroundImageFix"/>
<feBlend mode="normal" in="SourceGraphic" in2="BackgroundImageFix" result="shape"/>
<feGaussianBlur stdDeviation="9.86691" result="effect1_foregroundBlur_90_7129"/>
</filter>
<filter id="filter4_f_90_7129" x="220.809" y="-140.473" width="464.445" height="422.378" filterUnits="userSpaceOnUse" color-interpolation-filters="sRGB">
<feFlood flood-opacity="0" result="BackgroundImageFix"/>
<feBlend mode="normal" in="SourceGraphic" in2="BackgroundImageFix" result="shape"/>
<feGaussianBlur stdDeviation="26.6406" result="effect1_foregroundBlur_90_7129"/>
</filter>
<filter id="filter5_f_90_7129" x="108.172" y="-260.576" width="605.355" height="626.816" filterUnits="userSpaceOnUse" color-interpolation-filters="sRGB">
<feFlood flood-opacity="0" result="BackgroundImageFix"/>
<feBlend mode="normal" in="SourceGraphic" in2="BackgroundImageFix" result="shape"/>
<feGaussianBlur stdDeviation="66.1083" result="effect1_foregroundBlur_90_7129"/>
</filter>
<filter id="filter6_f_90_7129" x="267.835" y="-160.863" width="435.07" height="430.352" filterUnits="userSpaceOnUse" color-interpolation-filters="sRGB">
<feFlood flood-opacity="0" result="BackgroundImageFix"/>
<feBlend mode="normal" in="SourceGraphic" in2="BackgroundImageFix" result="shape"/>
<feGaussianBlur stdDeviation="30.5874" result="effect1_foregroundBlur_90_7129"/>
</filter>
<filter id="filter7_f_90_7129" x="111.433" y="-123.001" width="470.393" height="179.942" filterUnits="userSpaceOnUse" color-interpolation-filters="sRGB">
<feFlood flood-opacity="0" result="BackgroundImageFix"/>
<feBlend mode="normal" in="SourceGraphic" in2="BackgroundImageFix" result="shape"/>
<feGaussianBlur stdDeviation="2.37021" result="effect1_foregroundBlur_90_7129"/>
</filter>
<filter id="filter8_f_90_7129" x="108.725" y="-125.71" width="475.811" height="189.657" filterUnits="userSpaceOnUse" color-interpolation-filters="sRGB">
<feFlood flood-opacity="0" result="BackgroundImageFix"/>
<feBlend mode="normal" in="SourceGraphic" in2="BackgroundImageFix" result="shape"/>
<feGaussianBlur stdDeviation="3.72461" result="effect1_foregroundBlur_90_7129"/>
</filter>
<filter id="filter9_f_90_7129" x="56.7386" y="-131.001" width="533.325" height="207.932" filterUnits="userSpaceOnUse" color-interpolation-filters="sRGB">
<feFlood flood-opacity="0" result="BackgroundImageFix"/>
<feBlend mode="normal" in="SourceGraphic" in2="BackgroundImageFix" result="shape"/>
<feGaussianBlur stdDeviation="6.43341" result="effect1_foregroundBlur_90_7129"/>
</filter>
<filter id="filter10_f_90_7129" x="44.2079" y="-139.127" width="553.983" height="245.109" filterUnits="userSpaceOnUse" color-interpolation-filters="sRGB">
<feFlood flood-opacity="0" result="BackgroundImageFix"/>
<feBlend mode="normal" in="SourceGraphic" in2="BackgroundImageFix" result="shape"/>
<feGaussianBlur stdDeviation="10.4966" result="effect1_foregroundBlur_90_7129"/>
</filter>
<linearGradient id="paint0_linear_90_7129" x1="363.608" y1="149.157" x2="556.559" y2="178.665" gradientUnits="userSpaceOnUse">
<stop stop-color="#C4C4C4"/>
<stop offset="0.943414" stop-color="#C4C4C4" stop-opacity="0"/>
</linearGradient>
<linearGradient id="paint1_linear_90_7129" x1="438.074" y1="245.767" x2="489.003" y2="24.2671" gradientUnits="userSpaceOnUse">
<stop stop-color="#C4C4C4"/>
<stop offset="1" stop-color="#C4C4C4" stop-opacity="0"/>
</linearGradient>
<linearGradient id="paint2_linear_90_7129" x1="335.814" y1="-24.221" x2="348.865" y2="-82.6525" gradientUnits="userSpaceOnUse">
<stop stop-color="#C4C4C4"/>
<stop offset="1" stop-color="#C4C4C4" stop-opacity="0"/>
</linearGradient>
<linearGradient id="paint3_linear_90_7129" x1="570.609" y1="24.3301" x2="111.305" y2="-67.9689" gradientUnits="userSpaceOnUse">
<stop stop-color="#C4C4C4" stop-opacity="0"/>
<stop offset="0.364583" stop-color="#C4C4C4"/>
<stop offset="0.609375" stop-color="#C4C4C4"/>
<stop offset="1" stop-color="#C4C4C4" stop-opacity="0"/>
</linearGradient>
</defs>
</svg>
